<svg width="18" height="18" viewBox="0 0 18 18" fill="none" xmlns="http://www.w3.org/2000/svg">
<path id="Vector" d="M10.5862 8.99904L17.6693 1.92716C17.8811 1.71545 18 1.42831 18 1.12891C18 0.829501 17.8811 0.54236 17.6693 0.330649C17.4576 0.118938 17.1705 0 16.8711 0C16.5717 0 16.2845 0.118938 16.0728 0.330649L9.00096 7.41377L1.92908 0.330649C1.71737 0.118938 1.43023 2.65824e-07 1.13082 2.68055e-07C0.83142 2.70286e-07 0.544278 0.118938 0.332568 0.330649C0.120857 0.54236 0.00191901 0.829501 0.00191901 1.12891C0.001919 1.42831 0.120857 1.71545 0.332568 1.92716L7.41569 8.99904L0.332568 16.0709C0.227188 16.1754 0.143547 16.2998 0.0864671 16.4368C0.0293876 16.5738 0 16.7208 0 16.8692C0 17.0176 0.0293876 17.1645 0.0864671 17.3016C0.143547 17.4386 0.227188 17.5629 0.332568 17.6674C0.437086 17.7728 0.561436 17.8565 0.698443 17.9135C0.835449 17.9706 0.982403 18 1.13082 18C1.27925 18 1.4262 17.9706 1.56321 17.9135C1.70021 17.8565 1.82456 17.7728 1.92908 17.6674L9.00096 10.5843L16.0728 17.6674C16.1774 17.7728 16.3017 17.8565 16.4387 17.9135C16.5757 17.9706 16.7227 18 16.8711 18C17.0195 18 17.1665 17.9706 17.3035 17.9135C17.4405 17.8565 17.5648 17.7728 17.6693 17.6674C17.7747 17.5629 17.8584 17.4386 17.9155 17.3016C17.9725 17.1645 18.0019 17.0176 18.0019 16.8692C18.0019 16.7208 17.9725 16.5738 17.9155 16.4368C17.8584 16.2998 17.7747 16.1754 17.6693 16.0709L10.5862 8.99904Z" fill="#040A27"/>
</svg>
